Coordinates
version=1
nRows=107
nColumns=6
inDegrees=yes

Units are S.I. units (second, meters, Newtons, ...)
If the header above contains a line with 'inDegrees', this indicates whether rotational values are in degrees (yes) or radians (no).

endheader
time	foot_tx	hip_flexion_r	knee_angle_r	ankle_angle_r	lumbar
     19.00000000	      0.26359349	     65.54203782	    -66.83160724	      2.94362810	    -11.38827804
     19.01000000	      0.26359478	     65.65382149	    -66.81801268	      2.94049931	    -11.49161381
     19.02000000	      0.26359517	     65.77215643	    -66.80244687	      2.93534459	    -11.60607385
     19.03000000	      0.26358437	     65.84728950	    -66.78758108	      2.93352734	    -11.79257900
     19.04000000	      0.26358795	     65.98990877	    -66.76761312	      2.92218974	    -11.92285470
     19.05000000	      0.26358820	     66.13922659	    -66.74513101	      2.90838344	    -12.06926169
     19.06000000	      0.26359047	     66.29334354	    -66.72080239	      2.89308776	    -12.23274535
     19.07000000	      0.26356818	     66.37127515	    -66.70299791	      2.88942576	    -12.50638609
     19.08000000	      0.26357017	     66.55028597	    -66.68249911	      2.87758296	    -12.68047022
     19.09000000	      0.26355585	     66.63929389	    -66.67050955	      2.88039587	    -12.97820828
     19.10000000	      0.26355766	     66.76096387	    -66.66218484	      2.88508928	    -13.25416255
     19.11000000	      0.26355323	     66.87541672	    -66.66552843	      2.90106539	    -13.55393040
     19.12000000	      0.26354440	     66.98020260	    -66.67974957	      2.92771260	    -13.88044091
     19.13000000	      0.26354743	     67.07959474	    -66.69683037	      2.95816627	    -14.23162323
     19.14000000	      0.26354742	     67.19404055	    -66.71471752	      2.98964755	    -14.58701546
     19.15000000	      0.26355165	     67.34406812	    -66.72157170	      3.01163892	    -14.92905898
     19.16000000	      0.26354238	     67.53864148	    -66.71751152	      3.02328961	    -15.25016428
     19.17000000	      0.26353310	     67.82167266	    -66.69514753	      3.01563716	    -15.50192158
     19.18000000	      0.26351045	     68.12812552	    -66.65312972	      2.99337343	    -15.76315578
     19.19000000	      0.26348864	     68.46198468	    -66.59660762	      2.95960190	    -16.02459549
     19.20000000	      0.26345816	     68.94254760	    -66.54188529	      2.91918566	    -16.13817373
     19.21000000	      0.26342999	     69.38213759	    -66.49360970	      2.88940111	    -16.31817054
     19.22000000	      0.26339654	     69.81813089	    -66.46738740	      2.87986085	    -16.51344803
     19.23000000	      0.26336125	     70.23893091	    -66.46767480	      2.89501950	    -16.73481652
     19.24000000	      0.26333927	     70.60044713	    -66.49167176	      2.93541972	    -17.03409247
     19.25000000	      0.26327379	     71.05100617	    -66.55024475	      3.00111768	    -17.23819248
     19.26000000	      0.26321564	     71.43689882	    -66.61621200	      3.08151854	    -17.53631307
     19.27000000	      0.26316439	     71.94348057	    -66.67984286	      3.15734130	    -17.71578182
     19.28000000	      0.26309622	     72.46690253	    -66.74121738	      3.23689317	    -17.90283709
     19.29000000	      0.26301844	     73.05296633	    -66.79627565	      3.31416006	    -18.04543532
     19.30000000	      0.26294064	     73.70353540	    -66.84115606	      3.38656385	    -18.14170424
     19.31000000	      0.26285319	     74.42249339	    -66.87888275	      3.45734487	    -18.18378559
     19.32000000	      0.26275769	     75.20442400	    -66.91088231	      3.52898586	    -18.17329677
     19.33000000	      0.26265398	     76.04465763	    -66.93924309	      3.60443953	    -18.11145984
     19.34000000	      0.26253878	     76.93349625	    -66.96688671	      3.68750353	    -18.00721294
     19.35000000	      0.26241965	     77.86372694	    -66.99422117	      3.77941120	    -17.86771220
     19.36000000	      0.26228734	     78.83621315	    -67.02477561	      3.88359227	    -17.68985545
     19.37000000	      0.26215030	     79.84693013	    -67.05710743	      3.99967146	    -17.47552796
     19.38000000	      0.26201091	     80.89289532	    -67.09119906	      4.12863041	    -17.22324291
     19.39000000	      0.26187595	     81.97350243	    -67.12822938	      4.27152018	    -16.92715181
     19.40000000	      0.26174796	     83.08046668	    -67.16705139	      4.42934933	    -16.59276610
     19.41000000	      0.26163818	     84.20161598	    -67.20689396	      4.60236093	    -16.23208067
     19.42000000	      0.26154327	     85.33327716	    -67.24752243	      4.79122423	    -15.84820823
     19.43000000	      0.26146770	     86.46027979	    -67.29071602	      4.99749034	    -15.45933676
     19.44000000	      0.26141099	     87.57717651	    -67.33418913	      5.21968956	    -15.07164930
     19.45000000	      0.26137083	     88.67604181	    -67.37849080	      5.45775623	    -14.69335655
     19.46000000	      0.26134583	     89.74278385	    -67.42642977	      5.71305385	    -14.33910312
     19.47000000	      0.26133260	     90.78041398	    -67.47530821	      5.98270280	    -14.00127922
     19.48000000	      0.26132584	     91.78872402	    -67.52388807	      6.26456241	    -13.67529430
     19.49000000	      0.26132826	     92.75923693	    -67.57159997	      6.55599767	    -13.36759847
     19.50000000	      0.26133599	     93.69527955	    -67.61502380	      6.85273552	    -13.06984134
     19.51000000	      0.26135178	     94.58976325	    -67.65421212	      7.15212456	    -12.78742584
     19.52000000	      0.26137735	     95.43336431	    -67.69251131	      7.45360232	    -12.52779755
     19.53000000	      0.26141351	     96.20705217	    -67.73476257	      7.75863488	    -12.30907356
     19.54000000	      0.26146492	     96.90293223	    -67.78471042	      8.06781580	    -12.13347826
     19.55000000	      0.26153316	     97.50651705	    -67.84726892	      8.38370277	    -12.01030687
     19.56000000	      0.26162185	     98.01594057	    -67.92328134	      8.70643176	    -11.93309532
     19.57000000	      0.26173246	     98.43052544	    -68.01072599	      9.03505048	    -11.89452410
     19.58000000	      0.26186644	     98.75070035	    -68.10587392	      9.36773088	    -11.88749532
     19.59000000	      0.26202463	     98.98425624	    -68.20161958	      9.70076014	    -11.89698075
     19.60000000	      0.26219947	     99.11016108	    -68.29639120	     10.03581089	    -11.94546201
     19.61000000	      0.26240462	     99.18575717	    -68.37226222	     10.36041386	    -11.95783569
     19.62000000	      0.26262230	     99.20716671	    -68.42980416	     10.67721237	    -11.93859541
     19.63000000	      0.26285180	     99.17142304	    -68.46161320	     10.98372804	    -11.89237198
     19.64000000	      0.26307972	     99.01359236	    -68.46872018	     11.28602620	    -11.90348084
     19.65000000	      0.26331227	     98.82297494	    -68.43692955	     11.57283674	    -11.86108900
     19.66000000	      0.26354164	     98.57345500	    -68.36411677	     11.84579084	    -11.80165663
     19.67000000	      0.26377380	     98.26220621	    -68.24587168	     12.10216817	    -11.73138880
     19.68000000	      0.26400571	     97.88558038	    -68.07893584	     12.34050885	    -11.65937127
     19.69000000	      0.26423803	     97.43800433	    -67.86069719	     12.55895089	    -11.59689963
     19.70000000	      0.26446860	     96.91572005	    -67.59067981	     12.75690657	    -11.55395523
     19.71000000	      0.26470985	     96.33010468	    -67.26871249	     12.93166427	    -11.52170690
     19.72000000	      0.26494605	     95.68644915	    -66.89501420	     13.08350173	    -11.49931659
     19.73000000	      0.26517966	     94.98757394	    -66.47285517	     13.21331830	    -11.48729564
     19.74000000	      0.26540974	     94.23944171	    -66.00412281	     13.32136158	    -11.48163009
     19.75000000	      0.26563661	     93.45005524	    -65.49135132	     13.40835073	    -11.47458464
     19.76000000	      0.26585895	     92.62321286	    -64.93885731	     13.47661500	    -11.46252229
     19.77000000	      0.26607615	     91.76596618	    -64.35038858	     13.52794507	    -11.43702030
     19.78000000	      0.26628740	     90.88180729	    -63.72996555	     13.56439561	    -11.39296409
     19.79000000	      0.26649039	     89.96615438	    -63.08184069	     13.58855708	    -11.33382228
     19.80000000	      0.26668605	     89.01881043	    -62.40797819	     13.60114299	    -11.25609147
     19.81000000	      0.26687720	     88.02695138	    -61.71093850	     13.60347876	    -11.17184927
     19.82000000	      0.26705747	     86.99476795	    -60.98896171	     13.59474265	    -11.07587239
     19.83000000	      0.26723773	     85.91279480	    -60.24447843	     13.57547931	    -10.98252594
     19.84000000	      0.26741332	     84.77618741	    -59.47967882	     13.54759434	    -10.90400668
     19.85000000	      0.26760686	     83.59977910	    -58.69568097	     13.50920061	    -10.82735150
     19.86000000	      0.26780139	     82.37129545	    -57.89630515	     13.46456508	    -10.77505254
     19.87000000	      0.26801228	     81.11316352	    -57.08227174	     13.41150268	    -10.72353223
     19.88000000	      0.26822409	     79.82108524	    -56.25513036	     13.35222926	    -10.68232852
     19.89000000	      0.26843777	     78.50160252	    -55.41361013	     13.28539505	    -10.64535774
     19.90000000	      0.26865235	     77.15846441	    -54.55478451	     13.20913460	    -10.60931013
     19.91000000	      0.26886769	     75.79305367	    -53.67591654	     13.12196736	    -10.57312176
     19.92000000	      0.26908321	     74.40357712	    -52.77570888	     13.02367794	    -10.53880338
     19.93000000	      0.26929837	     72.98736874	    -51.85398934	     12.91485717	    -10.50895925
     19.94000000	      0.26951368	     71.54476400	    -50.91072429	     12.79590794	    -10.48207845
     19.95000000	      0.26973130	     70.07899111	    -49.94588153	     12.66684207	    -10.45272362
     19.96000000	      0.26995429	     68.59319608	    -48.95955334	     12.52758220	    -10.41515489
     19.97000000	      0.27018529	     67.08973019	    -47.95206129	     12.37811455	    -10.36509387
     19.98000000	      0.27042469	     65.56752814	    -46.92493845	     12.21907529	    -10.30479201
     19.99000000	      0.27067293	     64.03104362	    -45.88085438	     12.05083667	    -10.23328617
     20.00000000	      0.27092804	     62.48056571	    -44.82418265	     11.87500032	    -10.15584460
     20.01000000	      0.27118931	     60.92126746	    -43.75798391	     11.69223038	    -10.07039243
     20.02000000	      0.27145268	     59.34954522	    -42.68565788	     11.50446890	     -9.98651089
     20.03000000	      0.27171407	     57.76019158	    -41.60775896	     11.31267244	     -9.91288036
     20.04000000	      0.27197676	     56.16645836	    -40.52046485	     11.11386305	     -9.83595086
     20.05000000	      0.27223666	     54.56161329	    -39.42239813	     10.90843516	     -9.76553169
     20.06000000	      0.27249652	     52.95174456	    -38.31003457	     10.69380191	     -9.69615688
